<svg xmlns="http://www.w3.org/2000/svg" aria-hidden="true" style="width: 0; height: 0; position: absolute; overflow: hidden"><defs><symbol id="icon-search" viewBox="0 0 32 32"><path stroke-linecap="round" stroke-linejoin="round" stroke-width="2" d="m25.667 25.667-5-5m-14.334-6a8.333 8.333 0 1 1 16.666 0 8.333 8.333 0 0 1-16.666 0z"></path></symbol><symbol id="icon-eye" viewBox="0 0 32 32"><path d="M30.457 15.797c-.042-.095-1.064-2.361-3.353-4.651-2.12-2.12-5.767-4.647-11.104-4.647S7.016 9.026 4.896 11.146c-2.289 2.29-3.311 4.556-3.353 4.651a.498.498 0 0 0 .001.409l-.001-.003c.042.095 1.064 2.361 3.353 4.65 2.12 2.119 5.767 4.646 11.104 4.646s8.984-2.526 11.104-4.646c2.289-2.289 3.311-4.555 3.353-4.65a.498.498 0 0 0-.001-.409l.001.003zm-4.087 4.375c-2.884 2.871-6.373 4.327-10.37 4.327s-7.486-1.456-10.37-4.327a17.03 17.03 0 0 1-3.03-4.08L2.556 16a17.07 17.07 0 0 1 3.073-4.172l.001-.001C8.514 8.955 12.003 7.499 16 7.499s7.486 1.456 10.37 4.328a17.036 17.036 0 0 1 3.03 4.081l.044.092a17.064 17.064 0 0 1-3.073 4.171l-.001.001zM16 10.5a5.5 5.5 0 1 0 0 11 5.5 5.5 0 0 0 5.5-5.5 5.507 5.507 0 0 0-5.5-5.5zm0 10a4.5 4.5 0 1 1 4.5-4.5 4.505 4.505 0 0 1-4.5 4.5z"></path></symbol><symbol id="icon-filter" viewBox="0 0 32 32"><path d="M31.23 4.662c0-1.58-1.632-2.757-4.99-3.596C23.491.379 19.854 0 16 0S8.509.379 5.76 1.066C2.402 1.906.77 3.082.77 4.662c0 .585.224 1.114.676 1.592l10.366 12.573v12.034a1.14 1.14 0 0 0 1.646 1.021l6.087-3.017c.387-.192.633-.587.633-1.019l.012-9.018L30.557 6.254c.451-.477.675-1.006.675-1.591zM6.826 3.154c2.51-.565 5.768-.876 9.174-.876s6.664.311 9.174.876c2.772.624 3.551 1.294 3.738 1.508-.187.213-.966.884-3.738 1.508-2.51.565-5.768.876-9.174.876s-6.664-.311-9.174-.876c-2.772-.624-3.551-1.294-3.738-1.508.186-.214.966-.884 3.738-1.508zm11.345 14.539c-.168.204-.26.459-.26.723l-.011 8.72-3.81 1.888V18.417c0-.264-.092-.521-.26-.725L6.123 8.344c2.703.632 6.19.98 9.878.98s7.175-.347 9.878-.98l-7.707 9.348z"></path></symbol></defs></svg>